<svg xmlns="http://www.w3.org/2000/svg" viewBox="0 0 1000 1000" style="background-color:rgb(255,255,255)">
	<ellipse rx="20" ry="20" cx="797.7259819547396" cy="810.2031532686174" style="stroke:rgb(0,0,0);fill-opacity:0" />
	<line x1="797.7259819547396" y1="810.2031532686174" x2="456.59613611605295" y2="436.5167712051907" style="stroke:rgb(0,0,0);fill-opacity:0" />
	<line x1="797.7259819547396" y1="810.2031532686174" x2="805.60156993055" y2="816.7670620271807" style="stroke:rgb(255,0,0);fill-opacity:0" />
	<ellipse rx="20" ry="20" cx="420.0268589369545" cy="229.81455128009853" style="stroke:rgb(0,0,0);fill-opacity:0" />
	<line x1="420.0268589369545" y1="229.81455128009853" x2="536.7605269825203" y2="958.8366089368457" style="stroke:rgb(0,0,0);fill-opacity:0" />
	<line x1="420.0268589369545" y1="229.81455128009853" x2="403.75661796737427" y2="221.75188310328534" style="stroke:rgb(255,0,0);fill-opacity:0" />
	<ellipse rx="20" ry="20" cx="1456.912806887042" cy="1443.33754331656" style="stroke:rgb(0,0,0);fill-opacity:0" />
	<line x1="1456.912806887042" y1="1443.33754331656" x2="664.8894312241646" y2="606.259228929694" style="stroke:rgb(0,0,0);fill-opacity:0" />
	<line x1="1456.912806887042" y1="1443.33754331656" x2="1488.4012260969034" y2="1471.4781721870497" style="stroke:rgb(255,0,0);fill-opacity:0" />
	<ellipse rx="20" ry="20" cx="426.8781360660716" cy="533.6177380637349" style="stroke:rgb(0,0,0);fill-opacity:0" />
	<line x1="426.8781360660716" y1="533.6177380637349" x2="251.54147841892473" y2="480.1289204084289" style="stroke:rgb(0,0,0);fill-opacity:0" />
	<line x1="426.8781360660716" y1="533.6177380637349" x2="256.6365477852635" y2="487.7154606451885" style="stroke:rgb(0,0,0);fill-opacity:0" />
	<line x1="426.8781360660716" y1="533.6177380637349" x2="417.0179651605716" y2="532.1512958312135" style="stroke:rgb(255,0,0);fill-opacity:0" />
	<ellipse rx="20" ry="20" cx="484.3629094661942" cy="-1.7369642148999525" style="stroke:rgb(0,0,0);fill-opacity:0" />
	<line x1="484.3629094661942" y1="-1.7369642148999525" x2="513.1128418300392" y2="564.3106694989872" style="stroke:rgb(0,0,0);fill-opacity:0" />
	<line x1="484.3629094661942" y1="-1.7369642148999525" x2="466.92158464882357" y2="-19.730823791612995" style="stroke:rgb(255,0,0);fill-opacity:0" />
	<ellipse rx="20" ry="20" cx="410.7269013816693" cy="1488.4294047285532" style="stroke:rgb(0,0,0);fill-opacity:0" />
	<line x1="410.7269013816693" y1="1488.4294047285532" x2="1456.912806887042" y2="1443.33754331656" style="stroke:rgb(0,0,0);fill-opacity:0" />
	<line x1="410.7269013816693" y1="1488.4294047285532" x2="449.6427268605269" y2="446.3130124495452" style="stroke:rgb(0,0,0);fill-opacity:0" />
	<line x1="410.7269013816693" y1="1488.4294047285532" x2="409.9796047262671" y2="1518.4980923677579" style="stroke:rgb(255,0,0);fill-opacity:0" />
	<ellipse rx="20" ry="20" cx="280.77738263389506" cy="640.4992064495317" style="stroke:rgb(0,0,0);fill-opacity:0" />
	<line x1="280.77738263389506" y1="640.4992064495317" x2="1165.0169745920132" y2="1098.402267950125" style="stroke:rgb(0,0,0);fill-opacity:0" />
	<line x1="280.77738263389506" y1="640.4992064495317" x2="278.72833771575574" y2="669.5793155199476" style="stroke:rgb(255,0,0);fill-opacity:0" />
	<ellipse rx="20" ry="20" cx="476.4432448722717" cy="503.78089477811244" style="stroke:rgb(0,0,0);fill-opacity:0" />
	<line x1="476.4432448722717" y1="503.78089477811244" x2="308.79748011755737" y2="630.308851216898" style="stroke:rgb(0,0,0);fill-opacity:0" />
	<line x1="476.4432448722717" y1="503.78089477811244" x2="291.4955695222986" y2="672.4536954031915" style="stroke:rgb(0,0,0);fill-opacity:0" />
	<line x1="476.4432448722717" y1="503.78089477811244" x2="476.4432448722717" y2="503.88089477811246" style="stroke:rgb(255,0,0);fill-opacity:0" />
	<ellipse rx="20" ry="20" cx="315.5147155148132" cy="596.9628837084351" style="stroke:rgb(0,0,0);fill-opacity:0" />
	<line x1="315.5147155148132" y1="596.9628837084351" x2="308.79748011755737" y2="630.308851216898" style="stroke:rgb(0,0,0);fill-opacity:0" />
	<line x1="315.5147155148132" y1="596.9628837084351" x2="288.5486065023602" y2="618.0369347272052" style="stroke:rgb(0,0,0);fill-opacity:0" />
	<line x1="315.5147155148132" y1="596.9628837084351" x2="306.82543664271014" y2="592.2134966066999" style="stroke:rgb(255,0,0);fill-opacity:0" />
	<ellipse rx="20" ry="20" cx="444.84969805157925" cy="453.04126997387357" style="stroke:rgb(0,0,0);fill-opacity:0" />
	<line x1="444.84969805157925" y1="453.04126997387357" x2="449.6427268605269" y2="446.3130124495452" style="stroke:rgb(0,0,0);fill-opacity:0" />
	<line x1="444.84969805157925" y1="453.04126997387357" x2="439.0476364140174" y2="461.4859664540337" style="stroke:rgb(255,0,0);fill-opacity:0" />
	<ellipse rx="20" ry="20" cx="540.051593371873" cy="861.8888169892633" style="stroke:rgb(0,0,0);fill-opacity:0" />
	<line x1="540.051593371873" y1="861.8888169892633" x2="484.3629094661942" y2="-1.7369642148999525" style="stroke:rgb(0,0,0);fill-opacity:0" />
	<line x1="540.051593371873" y1="861.8888169892633" x2="539.0233422109011" y2="1080.9377534357673" style="stroke:rgb(0,0,0);fill-opacity:0" />
	<line x1="540.051593371873" y1="861.8888169892633" x2="539.576467605272" y2="872.0775233872866" style="stroke:rgb(255,0,0);fill-opacity:0" />
	<ellipse rx="20" ry="20" cx="308.2632929467286" cy="628.2671346739758" style="stroke:rgb(0,0,0);fill-opacity:0" />
	<line x1="308.2632929467286" y1="628.2671346739758" x2="309.80963404547316" y2="628.083026353169" style="stroke:rgb(0,0,0);fill-opacity:0" />
	<line x1="308.2632929467286" y1="628.2671346739758" x2="307.8665689252282" y2="659.9099057260004" style="stroke:rgb(255,0,0);fill-opacity:0" />
	<ellipse rx="20" ry="20" cx="1165.0169745920132" cy="1098.402267950125" style="stroke:rgb(0,0,0);fill-opacity:0" />
	<line x1="1165.0169745920132" y1="1098.402267950125" x2="416.81556074051605" y2="457.41150340928573" style="stroke:rgb(0,0,0);fill-opacity:0" />
	<line x1="1165.0169745920132" y1="1098.402267950125" x2="1189.1494468605333" y2="1119.868677707228" style="stroke:rgb(255,0,0);fill-opacity:0" />
	<ellipse rx="20" ry="20" cx="289.3866795003479" cy="692.216027322653" style="stroke:rgb(0,0,0);fill-opacity:0" />
	<line x1="289.3866795003479" y1="692.216027322653" x2="308.79748011755737" y2="630.308851216898" style="stroke:rgb(0,0,0);fill-opacity:0" />
	<line x1="289.3866795003479" y1="692.216027322653" x2="305.6770973659718" y2="618.228209551387" style="stroke:rgb(0,0,0);fill-opacity:0" />
	<line x1="289.3866795003479" y1="692.216027322653" x2="280.45128193166244" y2="696.9058681093102" style="stroke:rgb(255,0,0);fill-opacity:0" />
	<ellipse rx="20" ry="20" cx="536.7605269825203" cy="958.8366089368457" style="stroke:rgb(0,0,0);fill-opacity:0" />
	<line x1="536.7605269825203" y1="958.8366089368457" x2="539.0233422109011" y2="1080.9377534357673" style="stroke:rgb(0,0,0);fill-opacity:0" />
	<line x1="536.7605269825203" y1="958.8366089368457" x2="532.811582581151" y2="976.4334542666136" style="stroke:rgb(0,0,0);fill-opacity:0" />
	<line x1="536.7605269825203" y1="958.8366089368457" x2="539.3055476836546" y2="978.7089430219875" style="stroke:rgb(255,0,0);fill-opacity:0" />
	<ellipse rx="20" ry="20" cx="307.00458019026667" cy="628.4802282468128" style="stroke:rgb(0,0,0);fill-opacity:0" />
	<line x1="307.00458019026667" y1="628.4802282468128" x2="318.081064121481" y2="600.6529592491079" style="stroke:rgb(0,0,0);fill-opacity:0" />
	<line x1="307.00458019026667" y1="628.4802282468128" x2="308.79592570682604" y2="648.42716877609" style="stroke:rgb(255,0,0);fill-opacity:0" />
	<ellipse rx="20" ry="20" cx="414.64686536894527" cy="595.7374669188997" style="stroke:rgb(0,0,0);fill-opacity:0" />
	<line x1="414.64686536894527" y1="595.7374669188997" x2="538.9600920637037" y2="859.9317238950999" style="stroke:rgb(0,0,0);fill-opacity:0" />
	<line x1="414.64686536894527" y1="595.7374669188997" x2="414.64686536894527" y2="595.8374669188997" style="stroke:rgb(255,0,0);fill-opacity:0" />
	<ellipse rx="20" ry="20" cx="376.30486630709316" cy="585.1377029583687" style="stroke:rgb(0,0,0);fill-opacity:0" />
	<line x1="376.30486630709316" y1="585.1377029583687" x2="266.53551204530623" y2="488.1466756472806" style="stroke:rgb(0,0,0);fill-opacity:0" />
	<line x1="376.30486630709316" y1="585.1377029583687" x2="373.29104517750653" y2="588.0854660863787" style="stroke:rgb(255,0,0);fill-opacity:0" />
	<ellipse rx="20" ry="20" cx="538.9600920637037" cy="859.9317238950999" style="stroke:rgb(0,0,0);fill-opacity:0" />
	<line x1="538.9600920637037" y1="859.9317238950999" x2="539.0233422109011" y2="1080.9377534357673" style="stroke:rgb(0,0,0);fill-opacity:0" />
	<line x1="538.9600920637037" y1="859.9317238950999" x2="540.051593371873" y2="861.8888169892633" style="stroke:rgb(0,0,0);fill-opacity:0" />
	<line x1="538.9600920637037" y1="859.9317238950999" x2="533.6141281274239" y2="861.3868780075524" style="stroke:rgb(255,0,0);fill-opacity:0" />
	<ellipse rx="20" ry="20" cx="251.54147841892473" cy="480.1289204084289" style="stroke:rgb(0,0,0);fill-opacity:0" />
	<line x1="251.54147841892473" y1="480.1289204084289" x2="451.9892766709907" y2="866.3557378118917" style="stroke:rgb(0,0,0);fill-opacity:0" />
	<line x1="251.54147841892473" y1="480.1289204084289" x2="776.2574215695868" y2="866.6862866486798" style="stroke:rgb(0,0,0);fill-opacity:0" />
	<line x1="251.54147841892473" y1="480.1289204084289" x2="414.4217615626659" y2="482.60289111569796" style="stroke:rgb(0,0,0);fill-opacity:0" />
	<line x1="251.54147841892473" y1="480.1289204084289" x2="433.4749305422961" y2="536.1259497894104" style="stroke:rgb(0,0,0);fill-opacity:0" />
	<line x1="251.54147841892473" y1="480.1289204084289" x2="412.841447772703" y2="611.6627278715927" style="stroke:rgb(0,0,0);fill-opacity:0" />
	<line x1="251.54147841892473" y1="480.1289204084289" x2="376.30486630709316" y2="585.1377029583687" style="stroke:rgb(0,0,0);fill-opacity:0" />
	<line x1="251.54147841892473" y1="480.1289204084289" x2="241.95748350613064" y2="477.4746181273911" style="stroke:rgb(255,0,0);fill-opacity:0" />
	<ellipse rx="20" ry="20" cx="271.89301871644324" cy="485.7488014668716" style="stroke:rgb(0,0,0);fill-opacity:0" />
	<line x1="271.89301871644324" y1="485.7488014668716" x2="251.54147841892473" y2="480.1289204084289" style="stroke:rgb(0,0,0);fill-opacity:0" />
	<line x1="271.89301871644324" y1="485.7488014668716" x2="433.4749305422961" y2="536.1259497894104" style="stroke:rgb(0,0,0);fill-opacity:0" />
	<line x1="271.89301871644324" y1="485.7488014668716" x2="261.920411179553" y2="485.2091401151979" style="stroke:rgb(255,0,0);fill-opacity:0" />
	<ellipse rx="20" ry="20" cx="318.081064121481" cy="600.6529592491079" style="stroke:rgb(0,0,0);fill-opacity:0" />
	<line x1="318.081064121481" y1="600.6529592491079" x2="308.79748011755737" y2="630.308851216898" style="stroke:rgb(0,0,0);fill-opacity:0" />
	<line x1="318.081064121481" y1="600.6529592491079" x2="315.5147155148132" y2="596.9628837084351" style="stroke:rgb(0,0,0);fill-opacity:0" />
	<line x1="318.081064121481" y1="600.6529592491079" x2="315.1014398734949" y2="604.1133129516429" style="stroke:rgb(255,0,0);fill-opacity:0" />
	<ellipse rx="20" ry="20" cx="433.4749305422961" cy="536.1259497894104" style="stroke:rgb(0,0,0);fill-opacity:0" />
	<line x1="433.4749305422961" y1="536.1259497894104" x2="426.8781360660716" y2="533.6177380637349" style="stroke:rgb(0,0,0);fill-opacity:0" />
	<line x1="433.4749305422961" y1="536.1259497894104" x2="432.96192255339605" y2="538.2134554195534" style="stroke:rgb(255,0,0);fill-opacity:0" />
	<ellipse rx="20" ry="20" cx="513.1128418300392" cy="564.3106694989872" style="stroke:rgb(0,0,0);fill-opacity:0" />
	<line x1="513.1128418300392" y1="564.3106694989872" x2="539.0233422109011" y2="1080.9377534357673" style="stroke:rgb(0,0,0);fill-opacity:0" />
	<line x1="513.1128418300392" y1="564.3106694989872" x2="420.0268589369545" y2="229.81455128009853" style="stroke:rgb(0,0,0);fill-opacity:0" />
	<line x1="513.1128418300392" y1="564.3106694989872" x2="511.14359494774834" y2="564.7833338203748" style="stroke:rgb(255,0,0);fill-opacity:0" />
	<ellipse rx="20" ry="20" cx="535.6998854190616" cy="978.9567471104892" style="stroke:rgb(0,0,0);fill-opacity:0" />
	<line x1="535.6998854190616" y1="978.9567471104892" x2="539.0233422109011" y2="1080.9377534357673" style="stroke:rgb(0,0,0);fill-opacity:0" />
	<line x1="535.6998854190616" y1="978.9567471104892" x2="535.6055617556992" y2="999.3562405688992" style="stroke:rgb(255,0,0);fill-opacity:0" />
	<ellipse rx="20" ry="20" cx="499.57462548294984" cy="766.5645357419352" style="stroke:rgb(0,0,0);fill-opacity:0" />
	<line x1="499.57462548294984" y1="766.5645357419352" x2="1165.0169745920132" y2="1098.402267950125" style="stroke:rgb(0,0,0);fill-opacity:0" />
	<line x1="499.57462548294984" y1="766.5645357419352" x2="492.41849935698207" y2="769.9858557120446" style="stroke:rgb(255,0,0);fill-opacity:0" />
	<ellipse rx="20" ry="20" cx="414.4217615626659" cy="482.60289111569796" style="stroke:rgb(0,0,0);fill-opacity:0" />
	<line x1="414.4217615626659" y1="482.60289111569796" x2="418.45870962860437" y2="617.8637422512022" style="stroke:rgb(0,0,0);fill-opacity:0" />
	<line x1="414.4217615626659" y1="482.60289111569796" x2="414.4217615626659" y2="482.90289111569797" style="stroke:rgb(255,0,0);fill-opacity:0" />
	<ellipse rx="20" ry="20" cx="776.2574215695868" cy="866.6862866486798" style="stroke:rgb(0,0,0);fill-opacity:0" />
	<line x1="776.2574215695868" y1="866.6862866486798" x2="1165.0169745920132" y2="1098.402267950125" style="stroke:rgb(0,0,0);fill-opacity:0" />
	<line x1="776.2574215695868" y1="866.6862866486798" x2="789.4130493734375" y2="880.9959012456922" style="stroke:rgb(255,0,0);fill-opacity:0" />
	<ellipse rx="20" ry="20" cx="532.811582581151" cy="976.4334542666136" style="stroke:rgb(0,0,0);fill-opacity:0" />
	<line x1="532.811582581151" y1="976.4334542666136" x2="541.8572910832486" y2="986.07365633376" style="stroke:rgb(0,0,0);fill-opacity:0" />
	<line x1="532.811582581151" y1="976.4334542666136" x2="539.0233422109011" y2="1080.9377534357673" style="stroke:rgb(0,0,0);fill-opacity:0" />
	<line x1="532.811582581151" y1="976.4334542666136" x2="525.0645262716666" y2="989.7372990435146" style="stroke:rgb(255,0,0);fill-opacity:0" />
	<ellipse rx="20" ry="20" cx="449.6427268605269" cy="446.3130124495452" style="stroke:rgb(0,0,0);fill-opacity:0" />
	<line x1="449.6427268605269" y1="446.3130124495452" x2="797.7259819547396" y2="810.2031532686174" style="stroke:rgb(0,0,0);fill-opacity:0" />
	<line x1="449.6427268605269" y1="446.3130124495452" x2="664.8894312241646" y2="606.259228929694" style="stroke:rgb(0,0,0);fill-opacity:0" />
	<line x1="449.6427268605269" y1="446.3130124495452" x2="543.0501924964935" y2="424.7429903304549" style="stroke:rgb(0,0,0);fill-opacity:0" />
	<line x1="449.6427268605269" y1="446.3130124495452" x2="410.7269013816693" y2="1488.4294047285532" style="stroke:rgb(0,0,0);fill-opacity:0" />
	<line x1="449.6427268605269" y1="446.3130124495452" x2="1166.5641310924416" y2="1098.7598291092377" style="stroke:rgb(0,0,0);fill-opacity:0" />
	<line x1="449.6427268605269" y1="446.3130124495452" x2="1456.912806887042" y2="1443.33754331656" style="stroke:rgb(0,0,0);fill-opacity:0" />
	<line x1="449.6427268605269" y1="446.3130124495452" x2="449.6427268605269" y2="446.61301244954524" style="stroke:rgb(255,0,0);fill-opacity:0" />
	<ellipse rx="20" ry="20" cx="543.0501924964935" cy="424.7429903304549" style="stroke:rgb(0,0,0);fill-opacity:0" />
	<line x1="543.0501924964935" y1="424.7429903304549" x2="795.9398482505555" y2="808.1518106141297" style="stroke:rgb(0,0,0);fill-opacity:0" />
	<line x1="543.0501924964935" y1="424.7429903304549" x2="543.0501924964935" y2="424.9429903304549" style="stroke:rgb(255,0,0);fill-opacity:0" />
	<ellipse rx="20" ry="20" cx="418.45870962860437" cy="617.8637422512022" style="stroke:rgb(0,0,0);fill-opacity:0" />
	<line x1="418.45870962860437" y1="617.8637422512022" x2="251.54147841892473" y2="480.1289204084289" style="stroke:rgb(0,0,0);fill-opacity:0" />
	<line x1="418.45870962860437" y1="617.8637422512022" x2="412.841447772703" y2="611.6627278715927" style="stroke:rgb(0,0,0);fill-opacity:0" />
	<line x1="418.45870962860437" y1="617.8637422512022" x2="414.7543487022565" y2="621.6146401081677" style="stroke:rgb(255,0,0);fill-opacity:0" />
	<ellipse rx="20" ry="20" cx="709.9585449423698" cy="642.396167425446" style="stroke:rgb(0,0,0);fill-opacity:0" />
	<line x1="709.9585449423698" y1="642.396167425446" x2="486.66031875222563" y2="437.62633809575743" style="stroke:rgb(0,0,0);fill-opacity:0" />
	<line x1="709.9585449423698" y1="642.396167425446" x2="449.6427268605269" y2="446.3130124495452" style="stroke:rgb(0,0,0);fill-opacity:0" />
	<line x1="709.9585449423698" y1="642.396167425446" x2="716.8509656938863" y2="650.0414787496104" style="stroke:rgb(255,0,0);fill-opacity:0" />
	<ellipse rx="20" ry="20" cx="539.0233422109011" cy="1080.9377534357673" style="stroke:rgb(0,0,0);fill-opacity:0" />
	<line x1="539.0233422109011" y1="1080.9377534357673" x2="499.57462548294984" y2="766.5645357419352" style="stroke:rgb(0,0,0);fill-opacity:0" />
	<line x1="539.0233422109011" y1="1080.9377534357673" x2="414.64686536894527" y2="595.7374669188997" style="stroke:rgb(0,0,0);fill-opacity:0" />
	<line x1="539.0233422109011" y1="1080.9377534357673" x2="541.3703952900349" y2="1077.6115836598146" style="stroke:rgb(0,0,0);fill-opacity:0" />
	<line x1="539.0233422109011" y1="1080.9377534357673" x2="420.0268589369545" y2="229.81455128009853" style="stroke:rgb(0,0,0);fill-opacity:0" />
	<line x1="539.0233422109011" y1="1080.9377534357673" x2="484.3629094661942" y2="-1.7369642148999525" style="stroke:rgb(0,0,0);fill-opacity:0" />
	<line x1="539.0233422109011" y1="1080.9377534357673" x2="543.7513800706755" y2="1092.9400100572013" style="stroke:rgb(255,0,0);fill-opacity:0" />
	<ellipse rx="20" ry="20" cx="795.9398482505555" cy="808.1518106141297" style="stroke:rgb(0,0,0);fill-opacity:0" />
	<line x1="795.9398482505555" y1="808.1518106141297" x2="449.6427268605269" y2="446.3130124495452" style="stroke:rgb(0,0,0);fill-opacity:0" />
	<line x1="795.9398482505555" y1="808.1518106141297" x2="797.7259819547396" y2="810.2031532686174" style="stroke:rgb(0,0,0);fill-opacity:0" />
	<line x1="795.9398482505555" y1="808.1518106141297" x2="797.2487150719342" y2="807.1739574247171" style="stroke:rgb(255,0,0);fill-opacity:0" />
	<ellipse rx="20" ry="20" cx="412.841447772703" cy="611.6627278715927" style="stroke:rgb(0,0,0);fill-opacity:0" />
	<line x1="412.841447772703" y1="611.6627278715927" x2="373.93917209444237" y2="585.4689294488417" style="stroke:rgb(0,0,0);fill-opacity:0" />
	<line x1="412.841447772703" y1="611.6627278715927" x2="410.69912153495375" y2="613.5352097927571" style="stroke:rgb(255,0,0);fill-opacity:0" />
	<ellipse rx="20" ry="20" cx="289.7172539776342" cy="616.8872190517967" style="stroke:rgb(0,0,0);fill-opacity:0" />
	<line x1="289.7172539776342" y1="616.8872190517967" x2="308.79748011755737" y2="630.308851216898" style="stroke:rgb(0,0,0);fill-opacity:0" />
	<line x1="289.7172539776342" y1="616.8872190517967" x2="282.65962552258634" y2="601.2705290237027" style="stroke:rgb(255,0,0);fill-opacity:0" />
	<ellipse rx="20" ry="20" cx="308.79748011755737" cy="630.308851216898" style="stroke:rgb(0,0,0);fill-opacity:0" />
	<line x1="308.79748011755737" y1="630.308851216898" x2="308.2632929467286" y2="628.2671346739758" style="stroke:rgb(0,0,0);fill-opacity:0" />
	<line x1="308.79748011755737" y1="630.308851216898" x2="307.00458019026667" y2="628.4802282468128" style="stroke:rgb(0,0,0);fill-opacity:0" />
	<line x1="308.79748011755737" y1="630.308851216898" x2="309.80963404547316" y2="628.083026353169" style="stroke:rgb(0,0,0);fill-opacity:0" />
	<line x1="308.79748011755737" y1="630.308851216898" x2="280.77738263389506" y2="640.4992064495317" style="stroke:rgb(0,0,0);fill-opacity:0" />
	<line x1="308.79748011755737" y1="630.308851216898" x2="476.4432448722717" y2="503.78089477811244" style="stroke:rgb(0,0,0);fill-opacity:0" />
	<line x1="308.79748011755737" y1="630.308851216898" x2="305.6770973659718" y2="618.228209551387" style="stroke:rgb(0,0,0);fill-opacity:0" />
	<line x1="308.79748011755737" y1="630.308851216898" x2="310.9319520766542" y2="671.6259722164802" style="stroke:rgb(255,0,0);fill-opacity:0" />
	<ellipse rx="20" ry="20" cx="253.8346952335302" cy="483.54351212145986" style="stroke:rgb(0,0,0);fill-opacity:0" />
	<line x1="253.8346952335302" y1="483.54351212145986" x2="251.54147841892473" y2="480.1289204084289" style="stroke:rgb(0,0,0);fill-opacity:0" />
	<line x1="253.8346952335302" y1="483.54351212145986" x2="249.82598457030093" y2="489.190788337103" style="stroke:rgb(255,0,0);fill-opacity:0" />
	<ellipse rx="20" ry="20" cx="291.4955695222986" cy="672.4536954031915" style="stroke:rgb(0,0,0);fill-opacity:0" />
	<line x1="291.4955695222986" y1="672.4536954031915" x2="289.3866795003479" y2="692.216027322653" style="stroke:rgb(0,0,0);fill-opacity:0" />
	<line x1="291.4955695222986" y1="672.4536954031915" x2="308.79748011755737" y2="630.308851216898" style="stroke:rgb(0,0,0);fill-opacity:0" />
	<line x1="291.4955695222986" y1="672.4536954031915" x2="281.82654885684855" y2="677.0650952020189" style="stroke:rgb(255,0,0);fill-opacity:0" />
	<ellipse rx="20" ry="20" cx="664.8894312241646" cy="606.259228929694" style="stroke:rgb(0,0,0);fill-opacity:0" />
	<line x1="664.8894312241646" y1="606.259228929694" x2="664.7805416375763" y2="610.752864490058" style="stroke:rgb(0,0,0);fill-opacity:0" />
	<line x1="664.8894312241646" y1="606.259228929694" x2="672.5642639812382" y2="603.835195668904" style="stroke:rgb(255,0,0);fill-opacity:0" />
	<ellipse rx="20" ry="20" cx="541.8572910832486" cy="986.07365633376" style="stroke:rgb(0,0,0);fill-opacity:0" />
	<line x1="541.8572910832486" y1="986.07365633376" x2="539.0233422109011" y2="1080.9377534357673" style="stroke:rgb(0,0,0);fill-opacity:0" />
	<line x1="541.8572910832486" y1="986.07365633376" x2="535.6998854190616" y2="978.9567471104892" style="stroke:rgb(0,0,0);fill-opacity:0" />
	<line x1="541.8572910832486" y1="986.07365633376" x2="548.3058489044478" y2="1014.0356032220419" style="stroke:rgb(255,0,0);fill-opacity:0" />
	<ellipse rx="20" ry="20" cx="288.5486065023602" cy="618.0369347272052" style="stroke:rgb(0,0,0);fill-opacity:0" />
	<line x1="288.5486065023602" y1="618.0369347272052" x2="308.79748011755737" y2="630.308851216898" style="stroke:rgb(0,0,0);fill-opacity:0" />
	<line x1="288.5486065023602" y1="618.0369347272052" x2="289.7172539776342" y2="616.8872190517967" style="stroke:rgb(0,0,0);fill-opacity:0" />
	<line x1="288.5486065023602" y1="618.0369347272052" x2="274.36240543073205" y2="609.4333362035864" style="stroke:rgb(255,0,0);fill-opacity:0" />
	<ellipse rx="20" ry="20" cx="266.53551204530623" cy="488.1466756472806" style="stroke:rgb(0,0,0);fill-opacity:0" />
	<line x1="266.53551204530623" y1="488.1466756472806" x2="251.54147841892473" y2="480.1289204084289" style="stroke:rgb(0,0,0);fill-opacity:0" />
	<line x1="266.53551204530623" y1="488.1466756472806" x2="271.89301871644324" y2="485.7488014668716" style="stroke:rgb(0,0,0);fill-opacity:0" />
	<line x1="266.53551204530623" y1="488.1466756472806" x2="247.43541744871632" y2="491.6922290971828" style="stroke:rgb(255,0,0);fill-opacity:0" />
	<ellipse rx="20" ry="20" cx="373.93917209444237" cy="585.4689294488417" style="stroke:rgb(0,0,0);fill-opacity:0" />
	<line x1="373.93917209444237" y1="585.4689294488417" x2="251.54147841892473" y2="480.1289204084289" style="stroke:rgb(0,0,0);fill-opacity:0" />
	<line x1="373.93917209444237" y1="585.4689294488417" x2="376.30486630709316" y2="585.1377029583687" style="stroke:rgb(0,0,0);fill-opacity:0" />
	<line x1="373.93917209444237" y1="585.4689294488417" x2="361.0219503411654" y2="589.8032913243954" style="stroke:rgb(255,0,0);fill-opacity:0" />
	<ellipse rx="20" ry="20" cx="664.7805416375763" cy="610.752864490058" style="stroke:rgb(0,0,0);fill-opacity:0" />
	<line x1="664.7805416375763" y1="610.752864490058" x2="709.9585449423698" y2="642.396167425446" style="stroke:rgb(0,0,0);fill-opacity:0" />
	<line x1="664.7805416375763" y1="610.752864490058" x2="449.6427268605269" y2="446.3130124495452" style="stroke:rgb(0,0,0);fill-opacity:0" />
	<line x1="664.7805416375763" y1="610.752864490058" x2="671.9376613512371" y2="618.0316173222785" style="stroke:rgb(255,0,0);fill-opacity:0" />
	<ellipse rx="20" ry="20" cx="456.59613611605295" cy="436.5167712051907" style="stroke:rgb(0,0,0);fill-opacity:0" />
	<line x1="456.59613611605295" y1="436.5167712051907" x2="444.81123520245893" y2="453.0952625460688" style="stroke:rgb(0,0,0);fill-opacity:0" />
	<line x1="456.59613611605295" y1="436.5167712051907" x2="449.6427268605269" y2="446.3130124495452" style="stroke:rgb(0,0,0);fill-opacity:0" />
	<line x1="456.59613611605295" y1="436.5167712051907" x2="468.2716543802685" y2="420.47851654389785" style="stroke:rgb(255,0,0);fill-opacity:0" />
	<ellipse rx="20" ry="20" cx="536.25902988793" cy="1084.8552498834204" style="stroke:rgb(0,0,0);fill-opacity:0" />
	<line x1="536.25902988793" y1="1084.8552498834204" x2="414.64686536894527" y2="595.7374669188997" style="stroke:rgb(0,0,0);fill-opacity:0" />
	<line x1="536.25902988793" y1="1084.8552498834204" x2="539.0233422109011" y2="1080.9377534357673" style="stroke:rgb(0,0,0);fill-opacity:0" />
	<line x1="536.25902988793" y1="1084.8552498834204" x2="535.2215990768805" y2="1105.02814730015" style="stroke:rgb(255,0,0);fill-opacity:0" />
	<ellipse rx="20" ry="20" cx="451.9892766709907" cy="866.3557378118917" style="stroke:rgb(0,0,0);fill-opacity:0" />
	<line x1="451.9892766709907" y1="866.3557378118917" x2="414.4217615626659" y2="482.60289111569796" style="stroke:rgb(0,0,0);fill-opacity:0" />
	<line x1="451.9892766709907" y1="866.3557378118917" x2="251.54147841892473" y2="480.1289204084289" style="stroke:rgb(0,0,0);fill-opacity:0" />
	<line x1="451.9892766709907" y1="866.3557378118917" x2="451.51265334512806" y2="876.4443728640518" style="stroke:rgb(255,0,0);fill-opacity:0" />
	<ellipse rx="20" ry="20" cx="256.6365477852635" cy="487.7154606451885" style="stroke:rgb(0,0,0);fill-opacity:0" />
	<line x1="256.6365477852635" y1="487.7154606451885" x2="251.54147841892473" y2="480.1289204084289" style="stroke:rgb(0,0,0);fill-opacity:0" />
	<line x1="256.6365477852635" y1="487.7154606451885" x2="253.8346952335302" y2="483.54351212145986" style="stroke:rgb(0,0,0);fill-opacity:0" />
	<line x1="256.6365477852635" y1="487.7154606451885" x2="258.203121371599" y2="501.6643153575126" style="stroke:rgb(255,0,0);fill-opacity:0" />
	<ellipse rx="20" ry="20" cx="309.80963404547316" cy="628.083026353169" style="stroke:rgb(0,0,0);fill-opacity:0" />
	<line x1="309.80963404547316" y1="628.083026353169" x2="307.00458019026667" y2="628.4802282468128" style="stroke:rgb(0,0,0);fill-opacity:0" />
	<line x1="309.80963404547316" y1="628.083026353169" x2="321.50220652847656" y2="646.6279310202224" style="stroke:rgb(255,0,0);fill-opacity:0" />
	<ellipse rx="20" ry="20" cx="486.66031875222563" cy="437.62633809575743" style="stroke:rgb(0,0,0);fill-opacity:0" />
	<line x1="486.66031875222563" y1="437.62633809575743" x2="543.0501924964935" y2="424.7429903304549" style="stroke:rgb(0,0,0);fill-opacity:0" />
	<line x1="486.66031875222563" y1="437.62633809575743" x2="449.6427268605269" y2="446.3130124495452" style="stroke:rgb(0,0,0);fill-opacity:0" />
	<line x1="486.66031875222563" y1="437.62633809575743" x2="486.6735291153951" y2="437.8836512403853" style="stroke:rgb(255,0,0);fill-opacity:0" />
	<ellipse rx="20" ry="20" cx="305.6770973659718" cy="618.228209551387" style="stroke:rgb(0,0,0);fill-opacity:0" />
	<line x1="305.6770973659718" y1="618.228209551387" x2="309.1485647223742" y2="631.6507175918446" style="stroke:rgb(0,0,0);fill-opacity:0" />
	<line x1="305.6770973659718" y1="618.228209551387" x2="302.7278242531045" y2="640.1022426745936" style="stroke:rgb(255,0,0);fill-opacity:0" />
	<ellipse rx="20" ry="20" cx="500" cy="10" style="stroke:rgb(0,0,0);fill-opacity:0" />
	<line x1="500" y1="10" x2="476.4432448722717" y2="503.78089477811244" style="stroke:rgb(0,0,0);fill-opacity:0" />
	<line x1="500" y1="10" x2="451.9892766709907" y2="866.3557378118917" style="stroke:rgb(0,0,0);fill-opacity:0" />
	<line x1="500" y1="10" x2="541.3703952900349" y2="1077.6115836598146" style="stroke:rgb(0,0,0);fill-opacity:0" />
	<line x1="500" y1="10" x2="410.7269013816693" y2="1488.4294047285532" style="stroke:rgb(0,0,0);fill-opacity:0" />
	<line x1="500" y1="10" x2="498.6426280750786" y2="50.050060699336285" style="stroke:rgb(255,0,0);fill-opacity:0" />
	<ellipse rx="20" ry="20" cx="541.3703952900349" cy="1077.6115836598146" style="stroke:rgb(0,0,0);fill-opacity:0" />
	<line x1="541.3703952900349" y1="1077.6115836598146" x2="536.25902988793" y2="1084.8552498834204" style="stroke:rgb(0,0,0);fill-opacity:0" />
	<line x1="541.3703952900349" y1="1077.6115836598146" x2="539.0233422109011" y2="1080.9377534357673" style="stroke:rgb(0,0,0);fill-opacity:0" />
	<line x1="541.3703952900349" y1="1077.6115836598146" x2="551.863901820633" y2="1081.443199485953" style="stroke:rgb(255,0,0);fill-opacity:0" />
	<ellipse rx="20" ry="20" cx="309.1485647223742" cy="631.6507175918446" style="stroke:rgb(0,0,0);fill-opacity:0" />
	<line x1="309.1485647223742" y1="631.6507175918446" x2="308.2632929467286" y2="628.2671346739758" style="stroke:rgb(0,0,0);fill-opacity:0" />
	<line x1="309.1485647223742" y1="631.6507175918446" x2="308.79748011755737" y2="630.308851216898" style="stroke:rgb(0,0,0);fill-opacity:0" />
	<line x1="309.1485647223742" y1="631.6507175918446" x2="313.81422467826803" y2="682.6421906278616" style="stroke:rgb(255,0,0);fill-opacity:0" />
	<ellipse rx="20" ry="20" cx="1166.5641310924416" cy="1098.7598291092377" style="stroke:rgb(0,0,0);fill-opacity:0" />
	<line x1="1166.5641310924416" y1="1098.7598291092377" x2="1165.0169745920132" y2="1098.402267950125" style="stroke:rgb(0,0,0);fill-opacity:0" />
	<line x1="1166.5641310924416" y1="1098.7598291092377" x2="1200.4397903649203" y2="1122.4779730882008" style="stroke:rgb(255,0,0);fill-opacity:0" />
	<ellipse rx="20" ry="20" cx="444.81123520245893" cy="453.0952625460688" style="stroke:rgb(0,0,0);fill-opacity:0" />
	<line x1="444.81123520245893" y1="453.0952625460688" x2="449.6427268605269" y2="446.3130124495452" style="stroke:rgb(0,0,0);fill-opacity:0" />
	<line x1="444.81123520245893" y1="453.0952625460688" x2="444.84969805157925" y2="453.04126997387357" style="stroke:rgb(0,0,0);fill-opacity:0" />
	<line x1="444.81123520245893" y1="453.0952625460688" x2="433.20711192733523" y2="469.6846555063891" style="stroke:rgb(255,0,0);fill-opacity:0" />
	<ellipse rx="20" ry="20" cx="416.81556074051605" cy="457.41150340928573" style="stroke:rgb(0,0,0);fill-opacity:0" />
	<line x1="416.81556074051605" y1="457.41150340928573" x2="416.81556074051605" y2="457.71150340928574" style="stroke:rgb(255,0,0);fill-opacity:0" />
</svg>